<svg width="943" height="258" viewBox="0 0 943 258" fill="none" xmlns="http://www.w3.org/2000/svg">
<path d="M118.111 167.726C118.101 166.946 118.245 166.173 118.534 165.449C118.823 164.725 119.252 164.066 119.796 163.51C120.34 162.953 120.988 162.51 121.703 162.205C122.418 161.901 123.186 161.741 123.963 161.736C125.544 161.742 127.059 162.375 128.177 163.497C129.294 164.619 129.925 166.139 129.932 167.726C129.926 168.506 129.767 169.276 129.464 169.994C129.16 170.711 128.719 171.362 128.164 171.908C127.609 172.453 126.953 172.884 126.232 173.174C125.511 173.464 124.74 173.608 123.963 173.598C123.192 173.606 122.428 173.459 121.715 173.167C121.001 172.874 120.353 172.442 119.808 171.895C119.263 171.349 118.832 170.698 118.541 169.982C118.249 169.266 118.103 168.499 118.111 167.726ZM119.515 183.819H128.411V241.021H119.515V183.819Z" fill="#0A0E15"/>
<path d="M143.391 183.818H152.286V193.567C156.265 186.638 163.639 182.644 172.066 182.644C186.344 182.644 192.665 191.335 192.665 206.371V241.022H183.769V207.545C183.769 196.973 179.907 191.335 169.608 191.335C167.315 191.303 165.038 191.735 162.915 192.605C160.791 193.475 158.864 194.765 157.247 196.398C155.631 198.031 154.358 199.974 153.506 202.111C152.654 204.248 152.239 206.536 152.286 208.837V241.021H143.391V183.818Z" fill="#0A0E15"/>
<path d="M204.365 212.478C204.348 208.536 205.113 204.629 206.615 200.986C208.118 197.343 210.328 194.037 213.117 191.26C215.906 188.483 219.218 186.291 222.86 184.812C226.501 183.332 230.4 182.595 234.328 182.644C241.822 182.584 249.074 185.302 254.694 190.279L249.075 196.622C245.04 193.068 239.813 191.179 234.446 191.335C222.507 191.335 213.495 200.263 213.495 212.478C213.495 224.341 222.155 233.503 234.679 233.503C240.738 233.585 246.585 231.264 250.948 227.043L256.098 233.738C250.199 239.268 242.4 242.298 234.328 242.196C230.406 242.258 226.511 241.534 222.871 240.066C219.231 238.599 215.919 236.418 213.129 233.651C210.339 230.884 208.127 227.586 206.622 223.951C205.117 220.315 204.35 216.415 204.365 212.478Z" fill="#0A0E15"/>
<path d="M263.12 212.478C263.12 195.916 275.526 182.644 291.795 182.644C307.01 182.644 319.065 195.799 319.065 212.125C319.065 213.77 318.832 215.532 318.832 215.649H272.363C272.841 220.797 275.243 225.572 279.086 229.015C282.93 232.458 287.929 234.313 293.08 234.208C299.453 234.235 305.646 232.08 310.636 228.1L314.498 234.678C308.362 239.535 300.778 242.183 292.963 242.197C276.813 242.197 263.12 230.567 263.12 212.478ZM310.288 208.837C309.357 198.265 301.276 190.63 291.328 190.63C281.613 190.63 273.654 198.147 272.367 208.837H310.288Z" fill="#0A0E15"/>
<path d="M331.703 183.819H340.248V193.691C344.462 186.291 352.772 182.65 362.018 182.65C377.819 182.65 388.937 195.687 388.937 212.366C388.937 229.045 377.818 242.197 362.017 242.197C353.005 242.197 344.811 238.438 340.599 231.038V257.585H331.703V183.819ZM379.803 212.36C379.803 200.263 371.376 191.335 360.024 191.335C349.139 191.335 340.595 200.38 340.595 212.36C340.595 224.341 349.139 233.503 360.024 233.503C371.379 233.503 379.807 224.577 379.807 212.36H379.803Z" fill="#0A0E15"/>
<path d="M404.616 223.872V191.218H396.073V183.819H404.616V171.483L413.512 169.838V183.816H432.941V191.216H413.512V224.105C413.512 231.974 416.906 234.206 421.47 234.206C424.836 234.104 428.095 233 430.834 231.035L433.76 237.965C429.91 240.659 425.343 242.132 420.65 242.194C410.585 242.197 404.616 237.262 404.616 223.872Z" fill="#0A0E15"/>
<path d="M442.887 167.726C442.877 166.946 443.021 166.173 443.31 165.449C443.599 164.725 444.028 164.066 444.572 163.51C445.116 162.953 445.764 162.51 446.479 162.205C447.195 161.901 447.963 161.741 448.74 161.736C450.321 161.742 451.835 162.375 452.953 163.497C454.071 164.619 454.702 166.139 454.708 167.726C454.703 168.506 454.544 169.276 454.24 169.994C453.937 170.711 453.495 171.362 452.941 171.908C452.386 172.453 451.729 172.884 451.008 173.174C450.287 173.464 449.516 173.608 448.74 173.598C447.969 173.606 447.205 173.459 446.491 173.167C445.778 172.874 445.13 172.442 444.585 171.895C444.04 171.349 443.609 170.698 443.317 169.982C443.026 169.266 442.88 168.499 442.887 167.726ZM444.292 183.819H453.186V241.021H444.292V183.819Z" fill="#0A0E15"/>
<path d="M465.826 212.478C465.757 206.516 467.454 200.668 470.704 195.676C473.954 190.685 478.609 186.775 484.078 184.445C489.547 182.115 495.583 181.469 501.418 182.589C507.254 183.709 512.626 186.545 516.851 190.737C521.077 194.928 523.966 200.285 525.151 206.128C526.336 211.971 525.763 218.036 523.506 223.551C521.248 229.067 517.408 233.784 512.473 237.104C507.538 240.424 501.731 242.197 495.789 242.197C491.871 242.245 487.982 241.512 484.347 240.04C480.713 238.568 477.407 236.387 474.619 233.622C471.832 230.857 469.619 227.565 468.11 223.935C466.601 220.306 465.824 216.411 465.826 212.478ZM516.622 212.478C516.622 200.38 507.61 191.335 495.789 191.335C483.969 191.335 474.955 200.38 474.955 212.478C474.955 218.024 477.15 223.342 481.057 227.263C484.964 231.184 490.263 233.386 495.788 233.386C501.314 233.386 506.613 231.184 510.52 227.263C514.427 223.342 516.622 218.024 516.622 212.478Z" fill="#0A0E15"/>
<path d="M538.389 183.818H547.284V193.567C551.263 186.638 558.637 182.644 567.064 182.644C581.343 182.644 587.663 191.335 587.663 206.371V241.022H578.77V207.545C578.77 196.973 574.908 191.335 564.608 191.335C562.314 191.303 560.038 191.735 557.914 192.605C555.791 193.475 553.863 194.765 552.247 196.398C550.63 198.031 549.358 199.974 548.506 202.111C547.654 204.248 547.239 206.536 547.286 208.837V241.021H538.391L538.389 183.818Z" fill="#0A0E15"/>
<path d="M627.22 163.732H636.116V193.567C640.094 186.638 647.351 182.644 655.779 182.644C669.823 182.644 676.494 190.982 676.494 206.371V241.022H667.482V207.545C667.482 196.973 663.386 191.335 653.087 191.335C642.669 191.335 636.116 199.675 636.116 208.719V241.021H627.22V163.732Z" fill="#0A0E15"/>
<path d="M688.078 212.478C688.078 195.916 700.484 182.644 716.753 182.644C731.968 182.644 744.024 195.799 744.024 212.125C744.024 213.77 743.791 215.532 743.791 215.649H697.321C697.799 220.797 700.201 225.572 704.044 229.015C707.887 232.458 712.886 234.313 718.036 234.208C724.41 234.235 730.603 232.08 735.593 228.1L739.455 234.678C733.318 239.534 725.735 242.182 717.92 242.196C701.771 242.197 688.078 230.567 688.078 212.478ZM735.247 208.837C734.315 198.265 726.235 190.63 716.286 190.63C706.572 190.63 698.612 198.147 697.325 208.837H735.247Z" fill="#0A0E15"/>
<path d="M754.321 212.478C754.321 195.681 765.439 182.644 781.24 182.644C790.37 182.644 798.446 186.402 802.658 193.803V183.818H811.554V241.021H802.658V231.037C798.446 238.555 790.37 242.196 781.24 242.196C765.439 242.197 754.321 229.041 754.321 212.478ZM802.655 212.478C802.655 200.498 794.112 191.335 783.227 191.335C771.874 191.335 763.446 200.263 763.446 212.478C763.446 224.577 771.874 233.503 783.227 233.503C794.115 233.503 802.658 224.459 802.658 212.478H802.655Z" fill="#0A0E15"/>
<path d="M826.531 163.732H835.427V241.021H826.531V163.732Z" fill="#0A0E15"/>
<path d="M853.451 223.872V191.218H844.906V183.819H853.451V171.483L862.345 169.838V183.816H881.775V191.216H862.345V224.105C862.345 231.974 865.741 234.206 870.304 234.206C873.67 234.104 876.93 233 879.669 231.035L882.593 237.965C878.744 240.659 874.178 242.132 869.485 242.194C859.42 242.197 853.451 237.262 853.451 223.872Z" fill="#0A0E15"/>
<path d="M893.124 163.732H902.02V193.567C905.999 186.638 913.255 182.644 921.683 182.644C935.728 182.644 942.4 190.982 942.4 206.371V241.022H933.387V207.545C933.387 196.973 929.29 191.335 918.99 191.335C908.574 191.335 902.02 199.675 902.02 208.719V241.021H893.124V163.732Z" fill="#0A0E15"/>
<path d="M178.582 93.5708L152.976 98.7595L158.146 124.458L183.752 119.269L178.582 93.5708Z" fill="#F57C00"/>
<path d="M97.5776 103.572L74.7105 108.898L80.0173 131.846L102.884 126.52L97.5776 103.572Z" fill="#651FFF"/>
<path d="M218.465 59.0919L194.9 63.8666L199.658 87.5165L223.223 82.7418L218.465 59.0919Z" fill="#F57C00"/>
<path d="M96.6102 141.252L73.192 146.707L78.6282 170.21L102.046 164.754L96.6102 141.252Z" fill="#651FFF"/>
<path opacity="0.7" d="M74.0233 177.065L55.0125 181.494L59.425 200.572L78.4358 196.143L74.0233 177.065Z" fill="#651FFF"/>
<path opacity="0.6" d="M295.797 39.0455L274.35 43.3911L278.68 64.9157L300.127 60.5701L295.797 39.0455Z" fill="#00BFA5"/>
<path d="M334.526 11.9556L312.562 16.4061L316.997 38.4485L338.96 33.998L334.526 11.9556Z" fill="#00BFA5"/>
<path opacity="0.7" d="M253.192 98.7265L234.635 102.487L238.382 121.112L256.939 117.351L253.192 98.7265Z" fill="#F57C00"/>
<path d="M286.272 81.4773L272.445 84.2799L275.238 98.1567L289.065 95.3541L286.272 81.4773Z" fill="#F57C00"/>
<path d="M134.193 119.231L115.219 123.076L119.05 142.117L138.024 138.273L134.193 119.231Z" fill="#F9CE5E"/>
<path opacity="0.5" d="M364.602 19.0875L350.774 21.8901L353.567 35.7657L367.394 32.9631L364.602 19.0875Z" fill="#00BFA5"/>
<path d="M256.858 67.0271L243.031 69.8284L245.823 83.7054L259.649 80.904L256.858 67.0271Z" fill="#F9CE5E"/>
<path opacity="0.8" d="M324.614 52.5323L310.787 55.3341L313.579 69.211L327.406 66.4091L324.614 52.5323Z" fill="#00BFA5"/>
<path opacity="0.8" d="M213.257 98.2887L199.43 101.09L202.222 114.966L216.048 112.164L213.257 98.2887Z" fill="#F57C00"/>
<path d="M160.953 142.009L147.213 145.21L150.403 159L164.143 155.8L160.953 142.009Z" fill="#651FFF"/>
<path d="M31.9468 198.421L20.4974 201.087L23.1544 212.578L34.6039 209.911L31.9468 198.421Z" fill="#651FFF"/>
<path opacity="0.5" d="M41.3854 175.766L29.9361 178.433L32.5939 189.923L44.0432 187.256L41.3854 175.766Z" fill="#651FFF"/>
<path d="M128.946 152.58L109.455 157.121L113.979 176.683L133.471 172.143L128.946 152.58Z" fill="#F57C00"/>
<path opacity="0.6" d="M8.99645 198.582L0 200.678L2.08874 209.706L11.0852 207.61L8.99645 198.582Z" fill="#651FFF"/>
<path d="M63.0061 144.324L49.2661 147.525L52.4552 161.314L66.1951 158.113L63.0061 144.324Z" fill="#651FFF"/>
<path d="M453.315 159.952L440.953 162.832L443.822 175.237L456.185 172.358L453.315 159.952Z" fill="#212121"/>
<path opacity="0.3" d="M368.651 -6.59068e-06L360.372 1.92831L362.294 10.2365L370.572 8.30814L368.651 -6.59068e-06Z" fill="#00BFA5"/>
</svg>
